<?xml version="1.0" encoding="UTF-8" standalone="no"?>
<svg
   xmlns:dc="http://purl.org/dc/elements/1.1/"
   xmlns:cc="http://creativecommons.org/ns#"
   xmlns:rdf="http://www.w3.org/1999/02/22-rdf-syntax-ns#"
   xmlns:svg="http://www.w3.org/2000/svg"
   xmlns="http://www.w3.org/2000/svg"
   xmlns:sodipodi="http://sodipodi.sourceforge.net/DTD/sodipodi-0.dtd"
   xmlns:inkscape="http://www.inkscape.org/namespaces/inkscape"
   sodipodi:docname="icon.svg"
   inkscape:version="1.0rc1 (09960d6f05, 2020-04-09)"
   id="svg6953"
   version="1.1"
   viewBox="0 0 96.556804 43.86667"
   height="43.866669mm"
   width="96.556801mm">
  <defs
     id="defs6947" />
  <sodipodi:namedview
     fit-margin-right="5"
     lock-margins="true"
     fit-margin-bottom="5"
     fit-margin-left="5"
     fit-margin-top="5"
     inkscape:window-maximized="1"
     inkscape:window-y="0"
     inkscape:window-x="0"
     inkscape:window-height="1415"
     inkscape:window-width="2560"
     showgrid="false"
     inkscape:document-rotation="0"
     inkscape:current-layer="layer1"
     inkscape:document-units="mm"
     inkscape:cy="143.5623"
     inkscape:cx="-98.273618"
     inkscape:zoom="0.98994949"
     inkscape:pageshadow="2"
     inkscape:pageopacity="0.0"
     borderopacity="1.0"
     bordercolor="#666666"
     pagecolor="#ffffff"
     id="base" />
  <metadata
     id="metadata6950">
    <rdf:RDF>
      <cc:Work
         rdf:about="">
        <dc:format>image/svg+xml</dc:format>
        <dc:type
           rdf:resource="http://purl.org/dc/dcmitype/StillImage" />
        <dc:title></dc:title>
      </cc:Work>
    </rdf:RDF>
  </metadata>
  <g
     transform="translate(1.8660152,2.3416304)"
     id="layer1"
     inkscape:groupmode="layer"
     inkscape:label="Layer 1">
    <g
       inkscape:export-ydpi="95.73423"
       inkscape:export-xdpi="95.73423"
       inkscape:export-filename="/home/lingow/projects/twchrome/images/icon128.png"
       transform="matrix(1.118995,0,0,1.118995,-14.298078,-13.917001)"
       id="g7592">
      <circle
         style="fill:#000000;fill-opacity:1;stroke-width:1"
         id="path7588"
         cx="30.710947"
         cy="29.945356"
         r="15.132627" />
      <path
         id="path6941"
         style="fill:#ffffff;fill-opacity:1;stroke:none;stroke-width:0.567649;stroke-miterlimit:4;stroke-dasharray:none;stroke-opacity:1"
         d="m 30.710937,16.001786 c 4.444084,-0.005 7.262671,2.158617 8.324132,6.391025 0.34698,1.383577 0.361084,3.584471 0.0269,4.226744 -1.041175,2.001726 -0.831741,5.616559 0.584639,10.089468 l 0.539153,1.702249 -0.348485,0.379883 c -0.547542,0.59704 -1.618727,1.586728 -2.601348,2.40306 -1.576099,1.309364 -4.098274,2.813542 -4.505712,2.687275 -0.09592,-0.02974 -0.164433,-2.188595 -0.189499,-5.975631 l -0.03927,-5.929294 2.239062,-1.666471 2.239078,-1.666471 0.168944,-0.786738 c 0.09275,-0.432811 0.130341,-0.825077 0.08355,-0.871817 -0.04662,-0.04679 -1.416563,0.133017 -3.044283,0.399519 -1.524363,0.249573 -3.016257,0.453365 -3.476969,0.477562 z m 1.7e-5,0 c -4.4441,-0.005 -7.262687,2.158617 -8.324132,6.391025 -0.346998,1.383577 -0.3611,3.584471 -0.0269,4.226744 1.041192,2.001726 0.83174,5.616559 -0.584622,10.089468 l -0.539169,1.702249 0.348483,0.379883 c 0.547542,0.59704 1.618745,1.586728 2.60135,2.40306 1.576115,1.309364 4.098272,2.813542 4.505728,2.687275 0.09592,-0.02974 0.164433,-2.188595 0.189483,-5.975631 l 0.03927,-5.929294 -2.239077,-1.666471 -2.239062,-1.666471 -0.168963,-0.786738 c -0.09274,-0.432811 -0.13034,-0.825077 -0.08355,-0.871817 0.04679,-0.04679 1.416563,0.133017 3.044298,0.399519 1.524346,0.249573 3.016242,0.453365 3.476954,0.477562 z"
         inkscape:connector-curvature="0" />
    </g>
    <g
       inkscape:export-ydpi="95.73423"
       inkscape:export-xdpi="95.73423"
       inkscape:export-filename="/home/lingow/projects/twchrome/images/icon48.png"
       transform="matrix(0.41962312,0,0,0.41962312,32.905405,-3.5573943)"
       id="g7598">
      <circle
         r="15.132627"
         cy="29.945356"
         cx="30.710947"
         id="circle7594"
         style="fill:#000000;fill-opacity:1;stroke-width:1" />
      <path
         inkscape:connector-curvature="0"
         d="m 30.710937,16.001786 c 4.444084,-0.005 7.262671,2.158617 8.324132,6.391025 0.34698,1.383577 0.361084,3.584471 0.0269,4.226744 -1.041175,2.001726 -0.831741,5.616559 0.584639,10.089468 l 0.539153,1.702249 -0.348485,0.379883 c -0.547542,0.59704 -1.618727,1.586728 -2.601348,2.40306 -1.576099,1.309364 -4.098274,2.813542 -4.505712,2.687275 -0.09592,-0.02974 -0.164433,-2.188595 -0.189499,-5.975631 l -0.03927,-5.929294 2.239062,-1.666471 2.239078,-1.666471 0.168944,-0.786738 c 0.09275,-0.432811 0.130341,-0.825077 0.08355,-0.871817 -0.04662,-0.04679 -1.416563,0.133017 -3.044283,0.399519 -1.524363,0.249573 -3.016257,0.453365 -3.476969,0.477562 z m 1.7e-5,0 c -4.4441,-0.005 -7.262687,2.158617 -8.324132,6.391025 -0.346998,1.383577 -0.3611,3.584471 -0.0269,4.226744 1.041192,2.001726 0.83174,5.616559 -0.584622,10.089468 l -0.539169,1.702249 0.348483,0.379883 c 0.547542,0.59704 1.618745,1.586728 2.60135,2.40306 1.576115,1.309364 4.098272,2.813542 4.505728,2.687275 0.09592,-0.02974 0.164433,-2.188595 0.189483,-5.975631 l 0.03927,-5.929294 -2.239077,-1.666471 -2.239062,-1.666471 -0.168963,-0.786738 c -0.09274,-0.432811 -0.13034,-0.825077 -0.08355,-0.871817 0.04679,-0.04679 1.416563,0.133017 3.044298,0.399519 1.524346,0.249573 3.016242,0.453365 3.476954,0.477562 z"
         style="fill:#ffffff;fill-opacity:1;stroke:none;stroke-width:0.567649;stroke-miterlimit:4;stroke-dasharray:none;stroke-opacity:1"
         id="path7596" />
    </g>
    <g
       inkscape:export-ydpi="95.73423"
       inkscape:export-xdpi="95.73423"
       inkscape:export-filename="/home/lingow/projects/twchrome/images/icon32.png"
       id="g7604"
       transform="matrix(0.27974875,0,0,0.27974875,62.722132,-1.485473)">
      <circle
         style="fill:#000000;fill-opacity:1;stroke-width:1"
         id="circle7600"
         cx="30.710947"
         cy="29.945356"
         r="15.132627" />
      <path
         id="path7602"
         style="fill:#ffffff;fill-opacity:1;stroke:none;stroke-width:0.567649;stroke-miterlimit:4;stroke-dasharray:none;stroke-opacity:1"
         d="m 30.710937,16.001786 c 4.444084,-0.005 7.262671,2.158617 8.324132,6.391025 0.34698,1.383577 0.361084,3.584471 0.0269,4.226744 -1.041175,2.001726 -0.831741,5.616559 0.584639,10.089468 l 0.539153,1.702249 -0.348485,0.379883 c -0.547542,0.59704 -1.618727,1.586728 -2.601348,2.40306 -1.576099,1.309364 -4.098274,2.813542 -4.505712,2.687275 -0.09592,-0.02974 -0.164433,-2.188595 -0.189499,-5.975631 l -0.03927,-5.929294 2.239062,-1.666471 2.239078,-1.666471 0.168944,-0.786738 c 0.09275,-0.432811 0.130341,-0.825077 0.08355,-0.871817 -0.04662,-0.04679 -1.416563,0.133017 -3.044283,0.399519 -1.524363,0.249573 -3.016257,0.453365 -3.476969,0.477562 z m 1.7e-5,0 c -4.4441,-0.005 -7.262687,2.158617 -8.324132,6.391025 -0.346998,1.383577 -0.3611,3.584471 -0.0269,4.226744 1.041192,2.001726 0.83174,5.616559 -0.584622,10.089468 l -0.539169,1.702249 0.348483,0.379883 c 0.547542,0.59704 1.618745,1.586728 2.60135,2.40306 1.576115,1.309364 4.098272,2.813542 4.505728,2.687275 0.09592,-0.02974 0.164433,-2.188595 0.189483,-5.975631 l 0.03927,-5.929294 -2.239077,-1.666471 -2.239062,-1.666471 -0.168963,-0.786738 c -0.09274,-0.432811 -0.13034,-0.825077 -0.08355,-0.871817 0.04679,-0.04679 1.416563,0.133017 3.044298,0.399519 1.524346,0.249573 3.016242,0.453365 3.476954,0.477562 z"
         inkscape:connector-curvature="0" />
    </g>
    <g
       inkscape:export-ydpi="95.73423"
       inkscape:export-xdpi="95.73423"
       inkscape:export-filename="/home/lingow/projects/twchrome/images/icon16.png"
       transform="matrix(0.13987437,0,0,0.13987437,83.278446,0.58644837)"
       id="g7610">
      <circle
         r="15.132627"
         cy="29.945356"
         cx="30.710947"
         id="circle7606"
         style="fill:#000000;fill-opacity:1;stroke-width:1" />
      <path
         inkscape:connector-curvature="0"
         d="m 30.710937,16.001786 c 4.444084,-0.005 7.262671,2.158617 8.324132,6.391025 0.34698,1.383577 0.361084,3.584471 0.0269,4.226744 -1.041175,2.001726 -0.831741,5.616559 0.584639,10.089468 l 0.539153,1.702249 -0.348485,0.379883 c -0.547542,0.59704 -1.618727,1.586728 -2.601348,2.40306 -1.576099,1.309364 -4.098274,2.813542 -4.505712,2.687275 -0.09592,-0.02974 -0.164433,-2.188595 -0.189499,-5.975631 l -0.03927,-5.929294 2.239062,-1.666471 2.239078,-1.666471 0.168944,-0.786738 c 0.09275,-0.432811 0.130341,-0.825077 0.08355,-0.871817 -0.04662,-0.04679 -1.416563,0.133017 -3.044283,0.399519 -1.524363,0.249573 -3.016257,0.453365 -3.476969,0.477562 z m 1.7e-5,0 c -4.4441,-0.005 -7.262687,2.158617 -8.324132,6.391025 -0.346998,1.383577 -0.3611,3.584471 -0.0269,4.226744 1.041192,2.001726 0.83174,5.616559 -0.584622,10.089468 l -0.539169,1.702249 0.348483,0.379883 c 0.547542,0.59704 1.618745,1.586728 2.60135,2.40306 1.576115,1.309364 4.098272,2.813542 4.505728,2.687275 0.09592,-0.02974 0.164433,-2.188595 0.189483,-5.975631 l 0.03927,-5.929294 -2.239077,-1.666471 -2.239062,-1.666471 -0.168963,-0.786738 c -0.09274,-0.432811 -0.13034,-0.825077 -0.08355,-0.871817 0.04679,-0.04679 1.416563,0.133017 3.044298,0.399519 1.524346,0.249573 3.016242,0.453365 3.476954,0.477562 z"
         style="fill:#ffffff;fill-opacity:1;stroke:none;stroke-width:0.567649;stroke-miterlimit:4;stroke-dasharray:none;stroke-opacity:1"
         id="path7608" />
    </g>
    <g
       inkscape:export-ydpi="95.73423"
       inkscape:export-xdpi="95.73423"
       inkscape:export-filename="/home/lingow/projects/twchrome/images/icon19.png"
       id="g7616"
       transform="matrix(0.16610082,0,0,0.16610082,75.401022,0.19796305)">
      <circle
         r="15.132627"
         cy="29.945356"
         cx="30.710947"
         id="circle7612"
         style="fill:#000000;fill-opacity:1;stroke-width:1" />
      <path
         inkscape:connector-curvature="0"
         d="m 30.710937,16.001786 c 4.444084,-0.005 7.262671,2.158617 8.324132,6.391025 0.34698,1.383577 0.361084,3.584471 0.0269,4.226744 -1.041175,2.001726 -0.831741,5.616559 0.584639,10.089468 l 0.539153,1.702249 -0.348485,0.379883 c -0.547542,0.59704 -1.618727,1.586728 -2.601348,2.40306 -1.576099,1.309364 -4.098274,2.813542 -4.505712,2.687275 -0.09592,-0.02974 -0.164433,-2.188595 -0.189499,-5.975631 l -0.03927,-5.929294 2.239062,-1.666471 2.239078,-1.666471 0.168944,-0.786738 c 0.09275,-0.432811 0.130341,-0.825077 0.08355,-0.871817 -0.04662,-0.04679 -1.416563,0.133017 -3.044283,0.399519 -1.524363,0.249573 -3.016257,0.453365 -3.476969,0.477562 z m 1.7e-5,0 c -4.4441,-0.005 -7.262687,2.158617 -8.324132,6.391025 -0.346998,1.383577 -0.3611,3.584471 -0.0269,4.226744 1.041192,2.001726 0.83174,5.616559 -0.584622,10.089468 l -0.539169,1.702249 0.348483,0.379883 c 0.547542,0.59704 1.618745,1.586728 2.60135,2.40306 1.576115,1.309364 4.098272,2.813542 4.505728,2.687275 0.09592,-0.02974 0.164433,-2.188595 0.189483,-5.975631 l 0.03927,-5.929294 -2.239077,-1.666471 -2.239062,-1.666471 -0.168963,-0.786738 c -0.09274,-0.432811 -0.13034,-0.825077 -0.08355,-0.871817 0.04679,-0.04679 1.416563,0.133017 3.044298,0.399519 1.524346,0.249573 3.016242,0.453365 3.476954,0.477562 z"
         style="fill:#ffffff;fill-opacity:1;stroke:none;stroke-width:0.567649;stroke-miterlimit:4;stroke-dasharray:none;stroke-opacity:1"
         id="path7614" />
    </g>
    <g
       inkscape:export-ydpi="95.73423"
       inkscape:export-xdpi="95.73423"
       inkscape:export-filename="/home/lingow/projects/twchrome/images/icon38.png"
       id="g7622"
       transform="matrix(0.33220164,0,0,0.33220164,49.409061,-2.2624435)">
      <circle
         r="15.132627"
         cy="29.945356"
         cx="30.710947"
         id="circle7618"
         style="fill:#000000;fill-opacity:1;stroke-width:1" />
      <path
         inkscape:connector-curvature="0"
         d="m 30.710937,16.001786 c 4.444084,-0.005 7.262671,2.158617 8.324132,6.391025 0.34698,1.383577 0.361084,3.584471 0.0269,4.226744 -1.041175,2.001726 -0.831741,5.616559 0.584639,10.089468 l 0.539153,1.702249 -0.348485,0.379883 c -0.547542,0.59704 -1.618727,1.586728 -2.601348,2.40306 -1.576099,1.309364 -4.098274,2.813542 -4.505712,2.687275 -0.09592,-0.02974 -0.164433,-2.188595 -0.189499,-5.975631 l -0.03927,-5.929294 2.239062,-1.666471 2.239078,-1.666471 0.168944,-0.786738 c 0.09275,-0.432811 0.130341,-0.825077 0.08355,-0.871817 -0.04662,-0.04679 -1.416563,0.133017 -3.044283,0.399519 -1.524363,0.249573 -3.016257,0.453365 -3.476969,0.477562 z m 1.7e-5,0 c -4.4441,-0.005 -7.262687,2.158617 -8.324132,6.391025 -0.346998,1.383577 -0.3611,3.584471 -0.0269,4.226744 1.041192,2.001726 0.83174,5.616559 -0.584622,10.089468 l -0.539169,1.702249 0.348483,0.379883 c 0.547542,0.59704 1.618745,1.586728 2.60135,2.40306 1.576115,1.309364 4.098272,2.813542 4.505728,2.687275 0.09592,-0.02974 0.164433,-2.188595 0.189483,-5.975631 l 0.03927,-5.929294 -2.239077,-1.666471 -2.239062,-1.666471 -0.168963,-0.786738 c -0.09274,-0.432811 -0.13034,-0.825077 -0.08355,-0.871817 0.04679,-0.04679 1.416563,0.133017 3.044298,0.399519 1.524346,0.249573 3.016242,0.453365 3.476954,0.477562 z"
         style="fill:#ffffff;fill-opacity:1;stroke:none;stroke-width:0.567649;stroke-miterlimit:4;stroke-dasharray:none;stroke-opacity:1"
         id="path7620" />
    </g>
  </g>
</svg>
